<svg width="275" height="184" viewBox="0 0 275 184" fill="none" xmlns="http://www.w3.org/2000/svg">
<path d="M45.8311 91.9197C20.5198 91.9197 0 71.3422 0 45.9599C0 20.5775 20.5198 0 45.8311 0C71.1424 0 91.6623 20.5775 91.6623 45.9599C91.6623 71.3422 71.1424 91.9197 45.8311 91.9197ZM137.493 91.9197C162.805 91.9197 183.325 71.3422 183.325 45.9599C183.325 20.5775 162.805 0 137.493 0C112.182 0 91.6623 20.5775 91.6623 45.9599C91.6623 71.3422 112.182 91.9197 137.493 91.9197ZM45.8311 91.9197C20.5198 91.9197 0 112.497 0 137.88C0 163.262 20.5198 183.839 45.8311 183.839C71.1424 183.839 91.6623 163.262 91.6623 137.88C91.6623 112.497 71.1424 91.9197 45.8311 91.9197ZM137.493 91.9197C112.182 91.9197 91.6623 112.497 91.6623 137.88C91.6623 163.262 112.182 183.839 137.493 183.839C162.805 183.839 183.325 163.262 183.325 137.88C183.325 112.497 162.805 91.9197 137.493 91.9197Z" fill="#EABA2C"/>
<path d="M137.493 91.9197C112.182 91.9197 91.6623 71.3422 91.6623 45.9599C91.6623 20.5775 112.182 0 137.493 0C162.805 0 183.325 20.5775 183.325 45.9599C183.325 71.3422 162.805 91.9197 137.493 91.9197ZM229.156 91.9197C254.467 91.9197 274.987 71.3422 274.987 45.9599C274.987 20.5775 254.467 0 229.156 0C203.844 0 183.325 20.5775 183.325 45.9599C183.325 71.3422 203.844 91.9197 229.156 91.9197ZM137.493 91.9197C112.182 91.9197 91.6623 112.497 91.6623 137.88C91.6623 163.262 112.182 183.839 137.493 183.839C162.805 183.839 183.325 163.262 183.325 137.88C183.325 112.497 162.805 91.9197 137.493 91.9197ZM229.156 91.9197C203.844 91.9197 183.325 112.497 183.325 137.88C183.325 163.262 203.844 183.839 229.156 183.839C254.467 183.839 274.987 163.262 274.987 137.88C274.987 112.497 254.467 91.9197 229.156 91.9197Z" fill="#EABA2C"/>
</svg>
