<svg width="252" height="204" viewBox="0 0 252 204" fill="none" xmlns="http://www.w3.org/2000/svg">
<path d="M97.1621 203.028C96.2867 202.99 95.4104 202.943 94.535 202.882C77.8732 201.726 61.7537 196.478 47.6041 187.604C33.4543 178.73 21.7097 166.504 13.4137 152.008C5.1181 137.512 0.52565 121.194 0.0424727 104.499C-0.440492 87.8041 3.20178 71.2456 10.6458 56.2941C18.0898 41.3431 29.1065 28.4587 42.7192 18.7819C56.3324 9.105 72.1229 2.93359 88.6903 0.816508C93.8441 0.157956 99.0237 -0.0991858 104.184 0.0340506L251.821 0.0340377C251.821 56.2035 206.286 101.739 150.117 101.739H150.031C206.122 101.739 251.593 147.209 251.593 203.301L97.1621 203.301V203.028Z" fill="#EABA2C"/>
</svg>
