<svg width="262" height="265" viewBox="0 0 262 265" fill="none" xmlns="http://www.w3.org/2000/svg">
<path d="M130.956 204.045C112.011 204.045 93.8427 196.458 80.4469 182.952C67.051 169.447 59.5254 151.129 59.5254 132.029C59.5254 112.929 67.051 94.6118 80.4469 81.1062C93.8427 67.6006 112.011 60.0133 130.956 60.0133C149.9 60.0133 168.069 67.6006 181.465 81.1062C194.861 94.6118 202.386 112.929 202.386 132.029C202.386 151.129 194.861 169.447 181.465 182.952C168.069 196.458 149.9 204.045 130.956 204.045ZM119.051 0H142.861V36.008H119.051V0ZM119.051 228.05H142.861V264.058H119.051V228.05ZM29.9413 47.1584L46.775 30.1867L72.0257 55.6443L55.1919 72.6161L29.9413 47.1584ZM189.886 208.414L206.72 191.442L231.97 216.9L215.137 233.872L189.886 208.414ZM215.137 30.1747L231.97 47.1584L206.72 72.6161L189.886 55.6443L215.137 30.1747ZM55.1919 191.442L72.0257 208.414L46.775 233.872L29.9413 216.9L55.1919 191.442ZM261.912 120.027V144.032H226.196V120.027H261.912ZM35.7152 120.027V144.032H0V120.027H35.7152Z" fill="#EABA2C"/>
</svg>
