<svg width="285" height="285" viewBox="0 0 285 285" fill="none" xmlns="http://www.w3.org/2000/svg">
<path d="M142.164 0C143.399 0 144.399 1.00066 144.399 2.23535C144.399 51.4455 154.9 85.7075 177.049 107.713C199.201 129.721 233.467 139.929 282.094 139.929C283.328 139.929 284.329 140.93 284.329 142.164C284.329 143.399 283.328 144.399 282.094 144.399C233.482 144.399 199.211 154.896 177.054 177.054C154.896 199.211 144.399 233.482 144.399 282.094C144.399 283.328 143.399 284.329 142.164 284.329C140.93 284.329 139.929 283.328 139.929 282.094C139.929 233.486 129.36 199.215 107.165 177.056C84.9695 154.896 50.6977 144.399 2.23535 144.399C1.00066 144.399 0 143.399 0 142.164C0.000112018 140.929 1.00073 139.929 2.23535 139.929C50.7125 139.929 84.9798 129.721 107.17 107.711C129.356 85.7042 139.929 51.4418 139.929 2.23535C139.929 1.00072 140.929 0.000103465 142.164 0Z" fill="#EABA2C"/>
</svg>
