<svg width="267" height="234" viewBox="0 0 267 234" fill="none" xmlns="http://www.w3.org/2000/svg">
<path d="M1.82251e-05 131.956C1.82251e-05 81.3434 37.6371 40.3138 84.0648 40.3138V136.371C84.0648 159.022 67.2211 177.384 46.4434 177.384H1.82251e-05V131.956Z" fill="#EABA2C"/>
<path d="M265.103 131.956C265.103 81.3434 227.465 40.3138 181.038 40.3138V136.371C181.038 159.022 197.881 177.384 218.659 177.384H265.103V131.956Z" fill="#EABA2C"/>
<path d="M97.5252 34.1771C97.5252 15.3016 111.562 0 128.876 0H136.228C153.543 0 167.579 15.3016 167.579 34.1771V177.385H97.5252V34.1771Z" fill="#EABA2C"/>
<path d="M266.205 196.642C266.205 217.276 250.861 234.003 231.934 234.003L34.2716 234.003C15.3439 234.003 -1.56727e-06 217.276 0 196.642L2.24369e-07 193.688L266.205 193.688V196.642Z" fill="#EABA2C"/>
</svg>
