<svg width="246" height="285" viewBox="0 0 246 285" fill="none" xmlns="http://www.w3.org/2000/svg">
<path fill-rule="evenodd" clip-rule="evenodd" d="M245.423 42.9531C245.493 42.953 245.564 42.9531 245.634 42.9531V175.186H245.305C245.259 176.168 245.2 177.151 245.127 178.133C243.731 196.838 237.39 214.934 226.669 230.818C215.948 246.703 201.174 259.886 183.66 269.199C166.146 278.511 146.43 283.669 126.26 284.212C106.089 284.754 86.0812 280.665 68.0167 272.308C49.9525 263.951 34.3842 251.582 22.6925 236.301C11.0012 221.019 3.54538 203.293 0.987451 184.695C0.254784 179.368 -0.0604958 174.015 0.0188685 168.678H0V0H245.423V42.9531ZM25.2125 28.1141V108.448C25.2131 140.016 50.8056 165.606 82.3736 165.607H121.029V251.458H145.916C186.017 251.458 218.524 218.95 218.524 178.85V95.2733H175.1C145.238 95.2737 121.029 119.482 121.029 149.344V69.826C121.029 46.7894 102.354 28.1141 79.3169 28.1141H25.2125Z" fill="#EABA2C"/>
</svg>
