<svg width="223" height="285" viewBox="0 0 223 285" fill="none" xmlns="http://www.w3.org/2000/svg">
<path d="M111.131 0C125.725 -6.37923e-07 140.176 2.8751 153.659 8.45996C167.142 14.0448 179.393 22.2304 189.713 32.5498C200.032 42.8693 208.219 55.1204 213.804 68.6035C219.389 82.0866 222.263 96.5379 222.263 111.132H178.911C182.704 114.047 186.314 117.209 189.713 120.604C200.032 130.91 208.219 143.145 213.804 156.61C219.389 170.076 222.263 184.508 222.263 199.083H182.663C185.101 201.133 187.453 203.291 189.713 205.551C200.032 215.87 208.219 228.121 213.804 241.604C219.389 255.088 222.263 269.539 222.263 284.133H0C-1.27584e-06 269.539 2.87415 255.088 8.45898 241.604C14.0439 228.121 22.2303 215.87 32.5498 205.551C34.8096 203.291 37.1619 201.133 39.5996 199.083H0C1.43212e-05 184.508 2.87412 170.076 8.45898 156.61C14.0439 143.145 22.2303 130.91 32.5498 120.604C35.9488 117.209 39.5585 114.047 43.3516 111.132H0C6.2847e-06 96.5379 2.87411 82.0866 8.45898 68.6035C14.0439 55.1205 22.2303 42.8693 32.5498 32.5498C42.8691 22.2306 55.1198 14.0448 68.6025 8.45996C82.0855 2.87512 96.537 4.18031e-05 111.131 0Z" fill="#EABA2C"/>
</svg>
